<svg xmlns="http://www.w3.org/2000/svg" viewBox="0 0 64 64" role="img" aria-label="POAssociation">
  <defs>
    <linearGradient id="ground" x1="0" y1="0" x2="1" y2="1">
      <stop offset="0" stop-color="#fbbf24"/><stop offset="0.55" stop-color="#f59e0b"/><stop offset="1" stop-color="#ea580c"/>
    </linearGradient>
    <linearGradient id="pAmber" x1="0" y1="0" x2="1" y2="1">
      <stop offset="0" stop-color="#f59e0b"/><stop offset="1" stop-color="#ea580c"/>
    </linearGradient>
    <radialGradient id="lit" cx="0.5" cy="0.42" r="0.62">
      <stop offset="0" stop-color="#fffdf7"/><stop offset="0.45" stop-color="#fde68a"/><stop offset="1" stop-color="#f59e0b"/>
    </radialGradient>
  </defs>
  <rect width="64" height="64" rx="15" fill="url(#ground)"/>
  <ellipse cx="31" cy="24" rx="20" ry="20" fill="#fde68a" opacity="0.18"/>
  
  <g fill="#fffaf3">
    <rect x="17" y="12" width="9.5" height="40" rx="4.6"/>
    <circle cx="30.5" cy="24" r="13.2"/>
  </g>
  <path d="M25 35 L25 24 a6.4 6.4 0 0 1 12.8 0 L37.8 35 Z" fill="url(#lit)"/>
  <path d="M25 35 L25 24 a6.4 6.4 0 0 1 12.8 0 L37.8 35" fill="none" stroke="#c2410c" stroke-width="0.7" opacity="0.55"/>
  <rect x="24.4" y="35" width="14" height="2.1" rx="1" fill="#fde68a" opacity="0.9"/>
  <circle cx="34.4" cy="27.5" r="1.5" fill="#7c2d12"/>
</svg>